<svg id="Cart" xmlns="http://www.w3.org/2000/svg" xmlns:xlink="http://www.w3.org/1999/xlink" width="67" height="67" viewBox="0 0 67 67">
  <metadata><?xpacket begin="﻿" id="W5M0MpCehiHzreSzNTczkc9d"?>
<x:xmpmeta xmlns:x="adobe:ns:meta/" x:xmptk="Adobe XMP Core 5.6-c138 79.159824, 2016/09/14-01:09:01        ">
   <rdf:RDF xmlns:rdf="http://www.w3.org/1999/02/22-rdf-syntax-ns#">
      <rdf:Description rdf:about=""/>
   </rdf:RDF>
</x:xmpmeta>
                                                                                                    
                                                                                                    
                                                                                                    
                                                                                                    
                                                                                                    
                                                                                                    
                                                                                                    
                                                                                                    
                                                                                                    
                                                                                                    
                                                                                                    
                                                                                                    
                                                                                                    
                                                                                                    
                                                                                                    
                                                                                                    
                                                                                                    
                                                                                                    
                                                                                                    
                                                                                                    
                           
<?xpacket end="w"?></metadata>
<defs>
    <style>
      .cls-1 {
        fill: #d32f2f;
        filter: url(#filter);
      }

      .cls-2, .cls-3 {
        fill: #fff;
      }

      .cls-2 {
        fill-rule: evenodd;
      }
    </style>
    <filter id="filter" x="0" y="0" width="67" height="67" filterUnits="userSpaceOnUse">
      <feOffset result="offset" dy="2" in="SourceAlpha"/>
      <feGaussianBlur result="blur" stdDeviation="2.236"/>
      <feFlood result="flood" flood-opacity="0.54"/>
      <feComposite result="composite" operator="in" in2="blur"/>
      <feBlend result="blend" in="SourceGraphic"/>
    </filter>
  </defs>
  <circle id="circle_" data-name="circle " class="cls-1" cx="33" cy="31" r="29"/>
  <path id="bascket" class="cls-2" d="M1750.84,643.691l-4.85-7.27a1.355,1.355,0,0,0-.88-0.441,1,1,0,0,0-.88.441l-4.85,7.27h-5.29a1.04,1.04,0,0,0-1.1,1.1v0.331l2.75,10.243a2.265,2.265,0,0,0,2.1,1.653h14.32a2.12,2.12,0,0,0,2.09-1.653l2.76-10.243v-0.331a1.04,1.04,0,0,0-1.1-1.1h-5.07Zm-9.04,0,3.31-4.847,3.31,4.847h-6.62Zm3.31,8.811a2.2,2.2,0,1,1,2.2-2.2A2.208,2.208,0,0,1,1745.11,652.5Z" transform="translate(-1712 -615)"/>
  <circle id="circle_small" data-name="circle  small" class="cls-3" cx="44" cy="45" r="9"/>
</svg>
